<svg version="1.1" viewBox="0.0 0.0 1943.0393700787401 512.0" fill="none" stroke="none" stroke-linecap="square" stroke-miterlimit="10" xmlns:xlink="http://www.w3.org/1999/xlink" xmlns="http://www.w3.org/2000/svg"><clipPath id="p.0"><path d="m0 0l1943.0394 0l0 512.0l-1943.0394 0l0 -512.0z" clip-rule="nonzero"/></clipPath><g clip-path="url(#p.0)"><path fill="#000000" fill-opacity="0.0" d="m0 0l1943.0394 0l0 512.0l-1943.0394 0z" fill-rule="evenodd"/><path fill="#186ce4" d="m1686.2158 0.06370436l0 0c141.37524 0.02023121 255.98059 114.62196 255.97913 255.97108c-0.0013427734 141.34909 -114.60901 255.92032 -255.98425 255.90292z" fill-rule="evenodd"/><path fill="#186ce4" d="m243.5958 0l1445.7953 0l0 512.0l-1445.7953 0z" fill-rule="evenodd"/><path fill="#ff4c4c" d="m243.5958 511.99738l0 -267.27557l111.62204 267.27557z" fill-rule="evenodd"/><path fill="#ff4c4c" d="m347.4933 494.97934l0 0c-132.02657 50.511505 -280.0171 -15.547546 -330.5473 -147.54752c-50.530197 -131.99998 15.534412 -279.95593 147.55998 -330.47006z" fill-rule="evenodd"/><path fill="#186ce4" d="m164.50119 16.936577l0 0c132.03528 -50.528873 280.03992 15.523121 330.5788 147.5318c50.53891 132.00868 -15.525726 279.98578 -147.55997 330.51727z" fill-rule="evenodd"/><path fill="#186ce4" d="m160.97469 308.3337l0 0c-28.388306 -74.13661 -6.460846 -151.43271 48.97638 -172.64566l0 0c26.621887 -10.186821 57.568924 -5.8137207 86.0331 12.157288c28.464172 17.971008 52.11389 48.067825 65.74643 83.66948l0 0c28.388306 74.13661 6.460846 151.43272 -48.97638 172.64568l0 0c-55.437225 21.212952 -123.39122 -21.690155 -151.77953 -95.82678z" fill-rule="evenodd"/><path fill="#000000" fill-opacity="0.0" d="m36.694344 158.07619l317.22836 -121.44882l121.44882 317.22833l-317.22836 121.44882z" fill-rule="evenodd"/><path fill="#ffffff" d="m257.7591 86.04374c-15.58017 9.1552734E-5 -30.583313 2.0198288 -45.0094 6.0592194c-14.426086 4.039383 -27.938538 9.76181 -40.537323 17.167267c-12.550705 7.4054565 -24.01944 16.301605 -34.406235 26.688438c-10.338699 10.338745 -19.210747 21.807526 -26.616135 34.406357c-7.4053955 12.598816 -13.127747 26.13533 -17.167053 40.609497c-4.0393066 14.474197 -6.05896 29.501358 -6.05896 45.081512c0 15.58017 2.0196533 30.583282 6.05896 45.00934c4.0393066 14.426056 9.761658 27.938446 17.167053 40.53717c7.405388 12.550629 16.277435 24.019318 26.616135 34.406036c10.386795 10.338623 21.85553 19.210602 34.406235 26.615906c12.598785 7.405304 26.111237 13.127563 40.537323 17.166779c14.426086 4.039215 29.42923 6.058777 45.0094 6.0586853c20.292725 -1.2207031E-4 39.888153 -3.510559 58.786346 -10.531372c18.946259 -7.020813 38.036774 -18.802246 57.271576 -35.34424l-43.350403 -71.19241c-13.704803 14.810852 -26.18335 24.596619 -37.4357 29.35727c-11.204285 4.760681 -22.961548 7.1410522 -35.27182 7.1411133c-12.406433 9.1552734E-5 -24.043472 -2.356079 -34.911133 -7.068573c-10.8676605 -4.7124634 -20.364838 -11.107941 -28.491531 -19.186493c-8.078613 -8.126648 -14.474182 -17.575684 -19.186707 -28.347137c-4.7125244 -10.819519 -7.0687866 -22.360382 -7.0687866 -34.622528c0 -12.310257 2.3562622 -23.923264 7.0687866 -34.83902c4.7125244 -10.915756 11.108093 -20.3889 19.186707 -28.41948c8.126694 -8.030563 17.62387 -14.40213 28.491531 -19.114716c10.8676605 -4.7125854 22.5047 -7.0689087 34.911133 -7.068985c12.310272 -7.6293945E-5 24.067535 2.3801575 35.27182 7.1407013c11.25235 4.7605286 23.730896 14.546158 37.4357 29.356842l43.27826 -71.19295c-19.186676 -16.68605 -38.253174 -28.491272 -57.199432 -35.415672c-18.898193 -6.9724884 -38.49362 -10.458679 -58.786346 -10.458557z" fill-rule="evenodd"/><path fill="#ffffff" d="m524.9747 242.03767c10.627197 -7.6293945E-5 20.076294 2.6687012 28.34729 8.006302c8.270935 5.289505 14.762634 12.598663 19.47522 21.92752c4.76062 9.280762 6.996643 19.835815 6.70813 31.665192c0.28851318 11.781311 -1.9475098 22.264282 -6.70813 31.448883c-4.7125854 9.136536 -11.204285 16.373657 -19.47522 21.711365c-8.270996 5.3377075 -17.720093 8.006561 -28.34729 8.006622c-10.627258 6.1035156E-5 -20.148438 -2.6687012 -28.56366 -8.006287c-8.415253 -5.337616 -15.003143 -12.574646 -19.763763 -21.71112c-4.712494 -9.184601 -6.92453 -19.667542 -6.6359863 -31.448822c-0.2885437 -11.829376 1.9234924 -22.38446 6.6359863 -31.665253c4.76062 -9.328888 11.348511 -16.638138 19.763763 -21.927765c8.415222 -5.3377075 17.936462 -8.006577 28.56366 -8.006638zm0 -60.73378c-24.524353 1.373291E-4 -46.30777 5.3138733 -65.35022 15.941193c-19.04242 10.627319 -34.117706 25.101578 -45.2258 43.42276c-11.059967 18.321167 -16.589996 39.311157 -16.589996 62.96991c0 23.610687 5.5300293 44.576538 16.589996 62.897614c11.108093 18.321045 26.18338 32.795105 45.2258 43.42221c19.04245 10.627106 40.825867 15.940552 65.35022 15.94043c24.524353 -1.5258789E-4 46.30774 -5.3138733 65.35022 -15.941223c19.090515 -10.627319 34.093628 -25.101562 45.0094 -43.42273c10.91571 -18.321198 16.373596 -39.28711 16.373596 -62.897797c0 -23.658752 -5.4578857 -44.64868 -16.373596 -62.969727c-10.9157715 -18.321045 -25.918884 -32.795135 -45.0094 -43.42221c-19.04248 -10.62709 -40.825867 -15.940582 -65.35022 -15.94043z" fill-rule="evenodd"/><path fill="#ffffff" d="m838.7639 181.30203c-12.983459 7.6293945E-5 -25.389893 2.6689758 -37.2193 8.006699c-11.829407 5.289612 -21.951721 12.310364 -30.366943 21.06224c-1.4813843 1.5322418 -2.8831177 3.0942688 -4.205078 4.6861115l0 0l-1.348938 -28.849747l-67.36987 3.9672852E-4l0 235.28928l70.904236 -3.9672852E-4l0 -140.94278c0 -5.6261597 1.1060181 -10.795502 3.3180542 -15.508026c2.211975 -4.7125244 5.241455 -8.920166 9.08844 -12.622879c3.8469238 -3.702713 8.415222 -6.5158234 13.704773 -8.439346c5.3376465 -1.9235077 11.108093 -2.8852692 17.31128 -2.885315c0.67456055 -0.024383545 1.34021 -0.036575317 1.9969482 -0.036590576c7.114441 -3.0517578E-5 13.180969 1.4306793 18.199585 4.29216c5.4819336 3.0775452 9.545288 7.7178955 12.190063 13.921097c2.6447754 6.203186 3.967163 14.041351 3.967163 23.514465l0 138.70673l71.337036 -4.272461E-4l0 -144.47714c0 -20.677368 -3.1016235 -38.181 -9.30481 -52.51085c-6.203247 -14.32988 -15.363831 -25.101288 -27.48175 -32.314255c-12.069824 -7.2610626 -26.976746 -10.891525 -44.720886 -10.891418z" fill-rule="evenodd"/><path fill="#ffffff" d="m1074.0852 92.652405c-15.964966 9.1552734E-5 -29.934204 3.6307373 -41.907837 10.891937c-11.973694 7.2131042 -21.278503 17.022888 -27.91449 29.429352c-6.6360474 12.406464 -9.954041 26.30362 -9.954041 41.69142l0 18.17685l-34.117676 2.1362305E-4l0 58.497726l34.117676 -1.9836426E-4l0 170.15556l71.337036 -4.272461E-4l0 -170.15556l48.327393 -2.746582E-4l0 -58.49774l-48.327393 2.89917E-4l0 -11.973648c0 -5.3376465 0.8175049 -9.833771 2.4523926 -13.488388c1.6350098 -3.7026978 4.2076416 -6.44368 7.7180176 -8.222916c3.5584717 -1.7792358 8.00647 -2.668869 13.344116 -2.6688995c2.9333496 -1.5258789E-5 6.179199 0.6010437 9.737671 1.8031921c3.5583496 1.154068 7.2611084 2.7649536 11.108032 4.832672l20.34082 -51.861855c-7.3573 -5.91465 -15.772583 -10.482864 -25.245728 -13.704628c-9.473145 -3.2698517 -19.811768 -4.904747 -31.015991 -4.9046783zm80.208984 0.8650894l0 327.97684l70.9043 -4.272461E-4l0 -327.9768z" fill-rule="evenodd"/><path fill="#ffffff" d="m1328.0107 66.5397c-12.983398 7.6293945E-5 -23.322144 3.3902664 -31.015991 10.170563c-7.6939697 6.780304 -11.540894 15.484055 -11.540894 26.111267c0 11.829384 3.7747803 20.917786 11.324463 27.265213c7.5496826 6.3474274 17.96045 9.521103 31.232422 9.521027c12.9835205 -7.6293945E-5 23.250122 -3.3902588 30.799805 -10.170563c7.5495605 -6.780304 11.324463 -15.652359 11.324463 -26.61618c0 -11.492775 -3.7027588 -20.412872 -11.108154 -26.7603c-7.3573 -6.3474274 -17.695923 -9.521103 -31.016113 -9.521027zm-35.416016 119.664505l0 235.28929l70.9043 -4.272461E-4l0 -235.28928z" fill-rule="evenodd"/><path fill="#ffffff" d="m1533.2173 181.29791c-22.745117 1.373291E-4 -43.134033 5.3138733 -61.166626 15.941177c-18.032593 10.627319 -32.290405 25.17369 -42.773315 43.63913c-10.483032 18.465439 -15.724487 39.383286 -15.724487 62.753525c0 23.322174 5.241455 44.21588 15.724487 62.681213c10.48291 18.465302 24.740723 33.011505 42.773315 43.63861c18.032593 10.627136 38.42151 15.940582 61.166626 15.94046c20.388916 -1.2207031E-4 39.503418 -3.678894 57.34375 -11.036285c17.888306 -7.405487 31.857544 -17.45575 41.907837 -30.150757l-38.08496 -46.523865c-4.76062 5.62619 -9.881836 10.362793 -15.36377 14.209778c-5.433838 3.7988892 -11.396606 6.660095 -17.888306 8.583618c-6.4918213 1.923523 -13.584595 2.885315 -21.278564 2.8853455c-10.9157715 6.1035156E-5 -20.677368 -2.6446533 -29.284912 -7.9341736c-8.559448 -5.3375854 -15.267578 -12.574646 -20.12439 -21.71112c-4.8568115 -9.18457 -7.2851562 -19.378998 -7.2851562 -30.583221c0 -11.829407 2.3562012 -22.312347 7.0687256 -31.448883c4.7125244 -9.184631 11.348511 -16.349625 19.908081 -21.49498c8.559448 -5.193451 18.465332 -7.7901917 29.717651 -7.790268c7.4053955 -4.5776367E-5 14.498291 1.1780396 21.278564 3.5342712c6.7802734 2.3562164 12.983398 5.602051 18.60962 9.737488c5.6262207 4.135437 10.506958 8.583466 14.642456 13.344025l38.5177 -46.091537c-10.338745 -13.320023 -24.307983 -23.658615 -41.907837 -31.015808c-17.551758 -7.4052887 -36.810547 -11.107864 -57.77649 -11.107742z" fill-rule="evenodd"/><path fill="#ffffff" d="m1691.0011 126.76642l0 59.435425l-41.691406 2.593994E-4l0 62.03212l41.691406 -2.4414062E-4l0 173.25717l70.904175 -4.272461E-4l0 -173.25717l45.586548 -2.593994E-4l0 -62.032135l-45.586548 2.746582E-4l0 -59.435432z" fill-rule="evenodd"/></g></svg>